<svg width="13" height="12" viewBox="0 0 13 12" fill="none" xmlns="http://www.w3.org/2000/svg">
<path d="M10.4 0.00524902H2.6C1.16406 0.00524902 0 1.07977 0 2.40525V9.60525C0 10.9307 1.16406 12.0052 2.6 12.0052H10.4C11.8359 12.0052 13 10.9307 13 9.60525V2.40525C13 1.07977 11.8359 0.00524902 10.4 0.00524902Z" fill="white"/>
<path d="M2.6001 4.50522C2.61025 4.2521 2.70674 4.04116 2.88955 3.87241C3.07236 3.70366 3.30088 3.6146 3.5751 3.60522H9.4251C9.69933 3.6146 9.92781 3.70366 10.1107 3.87241C10.2934 4.04116 10.39 4.2521 10.4001 4.50522V8.10522C10.39 8.35836 10.2934 8.56926 10.1107 8.73804C9.92781 8.90676 9.69933 8.99586 9.4251 9.00522H3.5751C3.30088 8.99586 3.07236 8.90676 2.88955 8.73804C2.70674 8.56926 2.61025 8.35836 2.6001 8.10522V4.50522ZM3.33135 4.50522V4.8146L5.9669 6.8115C6.1294 6.92394 6.30713 6.98022 6.5001 6.98022C6.69308 6.98022 6.87586 6.92394 7.04857 6.8115L9.66885 4.8146V4.49116C9.65871 4.35991 9.57746 4.28491 9.4251 4.26616H3.5751C3.42275 4.28491 3.3415 4.35991 3.33135 4.49116V4.50522ZM3.33135 5.68647V8.10522C3.3415 8.24586 3.42275 8.32086 3.5751 8.33022H9.4251C9.57746 8.32086 9.65871 8.24586 9.66885 8.10522V5.68647L7.50558 7.33176C7.20086 7.54741 6.86572 7.65522 6.5001 7.65522C6.13447 7.65522 5.79424 7.54741 5.4794 7.33176L3.33135 5.68647Z" fill="url(#paint0_linear_73_792)"/>
<defs>
<linearGradient id="paint0_linear_73_792" x1="6.50007" y1="9.00516" x2="6.50007" y2="3.00495" gradientUnits="userSpaceOnUse">
<stop stop-color="#21171F"/>
<stop offset="1" stop-color="#3E4049"/>
</linearGradient>
</defs>
</svg>
