<svg width="69" height="28" viewBox="0 0 69 28" fill="none" xmlns="http://www.w3.org/2000/svg">
<g clip-path="url(#clip0_73_657)">
<path fill-rule="evenodd" clip-rule="evenodd" d="M12.4266 11.9402L16.0278 12.3242C16.2181 12.3441 16.3563 12.5117 16.3359 12.6984C16.3272 12.779 16.2899 12.8502 16.2356 12.9035C16.0602 13.0772 15.8901 13.2419 15.7259 13.4006C14.6286 14.4623 13.8017 15.2628 13.7051 16.6573C13.6537 17.3993 14.0737 18.0851 14.5166 18.8075C15.1826 19.8948 15.8943 21.0566 15.4232 22.7362C15.1947 23.5515 14.7908 24.2898 14.2674 24.9687C13.7532 25.6358 13.1196 26.2492 12.422 26.8248C12.3071 26.9192 12.1483 26.9286 12.026 26.859L10.1309 25.7859L10.6144 25.275L12.1612 26.1512C12.7447 25.6545 13.2751 25.1273 13.713 24.559C14.1878 23.9427 14.5523 23.2801 14.7551 22.5585C15.1478 21.1583 14.5146 20.1247 13.922 19.1574C13.4214 18.341 12.9466 17.5656 13.013 16.6129C13.127 14.965 14.0315 14.0868 15.232 12.925L11.9335 12.5732L12.4266 11.9402Z" fill="black"/>
<path fill-rule="evenodd" clip-rule="evenodd" d="M3.56755 10.2448L10.3412 10.9672C8.94451 12.3519 7.82981 13.1992 7.70914 14.9395C7.57186 16.9184 10.1952 18.258 9.43924 20.9517C9.00794 22.4894 7.90361 23.7524 6.54963 24.8699L0.731445 21.5749C1.76279 20.9159 2.7958 19.7566 2.94177 18.5143C3.1458 16.7801 1.20212 15.1017 1.69022 13.423C2.02074 12.2839 2.64153 11.112 3.56755 10.2448Z" fill="black"/>
<path fill-rule="evenodd" clip-rule="evenodd" d="M7.23985 8.55736L14.9254 9.37255C15.1158 9.39249 15.2538 9.5601 15.2335 9.7468C15.2236 9.83914 15.1767 9.91889 15.1091 9.97338L14.4921 10.4847C12.8353 11.8536 11.8231 12.6395 11.1745 14.6209C10.8158 15.7168 11.1737 16.7081 11.5742 17.8166C12.0503 19.1337 12.5815 20.6047 12.1776 22.6463C11.9648 23.7203 11.4706 24.6677 10.776 25.5386C10.0917 26.3957 9.21832 27.1751 8.23137 27.9284C8.1078 28.0224 7.94025 28.022 7.81835 27.9382L2.02586 24.0318C1.86247 23.9342 1.81105 23.7247 1.91057 23.5645C1.94084 23.516 1.98149 23.4774 2.02793 23.4502C2.77438 23.001 3.74311 22.1025 4.34401 21.3707C4.85326 20.7504 5.24183 20.06 5.39402 19.3547C5.60717 18.3678 5.22317 17.3463 4.84289 16.3339C4.37552 15.0903 3.91231 13.8578 4.41451 12.5658C4.73051 11.7539 5.15598 10.9285 5.68721 10.1577C6.17157 9.45476 6.31215 9.20903 6.97443 8.64074C7.05073 8.57528 7.14733 8.54801 7.23985 8.55736ZM14.0483 9.96402L7.31861 9.25014C6.75337 9.7533 6.68994 9.91928 6.26405 10.538C5.76351 11.2645 5.3625 12.0423 5.06475 12.8079C4.65503 13.8618 5.07346 14.9756 5.49562 16.0992C5.91032 17.2028 6.32876 18.3161 6.07412 19.4954C5.89788 20.3122 5.45829 21.0986 4.88519 21.7966C4.35728 22.4401 3.50922 23.2781 2.85401 23.7308L7.99331 27.2455C8.86583 26.5661 9.63261 25.8693 10.2306 25.1204C10.8597 24.3317 11.3064 23.479 11.4967 22.5186C11.8654 20.6572 11.3669 19.2786 10.9207 18.0436C10.479 16.822 10.0846 15.7294 10.5151 14.4134C11.2238 12.2482 12.3082 11.4028 14.047 9.96649L14.0483 9.96402Z" fill="black"/>
<path fill-rule="evenodd" clip-rule="evenodd" d="M3.38407 11.4101C3.27003 11.3975 3.18791 11.2958 3.20077 11.1839C3.21363 11.0721 3.3173 10.9916 3.43134 11.0042L8.61917 11.5903C8.73321 11.6029 8.81531 11.7046 8.8025 11.8165C8.78962 11.9284 8.68595 12.0089 8.57191 11.9963L3.38407 11.4101ZM2.68364 13.728C2.5696 13.7154 2.48749 13.6137 2.50035 13.5018C2.5132 13.3899 2.61688 13.3094 2.73092 13.322L5.53385 13.6389C5.64789 13.6515 5.73 13.7532 5.71715 13.865C5.70429 13.9769 5.60061 14.0575 5.48658 14.0449L2.68364 13.728ZM2.7757 12.5438C2.66167 12.5312 2.57956 12.4295 2.59241 12.3176C2.60526 12.2058 2.70894 12.1252 2.82298 12.1378L6.74973 12.5817C6.86377 12.5943 6.94587 12.696 6.93305 12.8078C6.92018 12.9197 6.81651 13.0002 6.70247 12.9876L2.7757 12.5438Z" fill="black"/>
<path fill-rule="evenodd" clip-rule="evenodd" d="M3.83914 18.888C3.677 19.8639 2.82438 20.7983 2.20068 21.3792C2.59589 21.6294 2.88203 21.8104 3.27723 22.061C4.20366 21.3959 5.02144 20.518 5.03305 19.3152L3.83914 18.888ZM5.08945 17.8052L6.37254 18.0452C6.53179 18.6294 6.71176 19.1504 6.73785 19.7459C6.79387 21.0338 5.90557 22.3331 4.93394 23.0303C4.53874 22.7797 4.14311 22.5296 3.74791 22.279C4.39857 21.6729 5.29846 20.6824 5.40379 19.6609C5.47014 19.0129 5.30841 18.4149 5.08945 17.8052ZM6.17098 16.5051C6.33977 17.8865 7.40013 18.6724 7.0667 20.4261C6.87513 21.4349 6.05279 22.4458 5.40213 23.0519C5.79734 23.3024 6.06606 23.4725 6.46128 23.7227C7.43329 23.0255 8.01391 22.041 8.38874 20.8865C8.97098 19.0935 7.62118 18.0293 7.33296 16.7199C6.89626 16.6393 6.60765 16.5856 6.17098 16.5051Z" fill="black"/>
<path d="M10.4854 7.77777C12.5324 7.77777 14.1919 6.03666 14.1919 3.88889C14.1919 1.74111 12.5324 0 10.4854 0C8.43829 0 6.77881 1.74111 6.77881 3.88889C6.77881 6.03666 8.43829 7.77777 10.4854 7.77777Z" fill="#F48C0D"/>
<path d="M13.579 3.5C13.579 5.19788 12.1971 6.58 10.4855 6.58C8.77388 6.58 7.39209 5.19788 7.39209 3.5C7.39209 1.80211 8.77388 0.419998 10.4855 0.419998C12.1971 0.419998 13.579 1.80211 13.579 3.5Z" fill="black" stroke="#F48C0D" stroke-width="1.5"/>
<path d="M18.875 25.2V13.1018H22.5046V14.8758C22.9134 14.2188 23.4611 13.7178 24.1478 13.3728C24.8345 13.0278 25.6029 12.8554 26.4531 12.8554C27.8755 12.8554 28.9383 13.2742 29.6413 14.112C30.3443 14.9334 30.6959 16.2064 30.6959 17.9312V25.2H26.9926V18.1037C26.9926 17.2659 26.8373 16.6663 26.5267 16.305C26.216 15.9271 25.7582 15.7382 25.1533 15.7382C24.3685 15.7382 23.7391 15.9846 23.2649 16.4774C22.8071 16.9702 22.5782 17.6273 22.5782 18.4486V25.2H18.875ZM36.8967 25.2L31.6485 13.1018H35.5479L38.5644 20.7894L41.679 13.1018H45.3332L40.0113 25.2H36.8967ZM50.2728 25.471C49.3736 25.471 48.5806 25.2986 47.8939 24.9536C47.2072 24.6086 46.6595 24.1405 46.2507 23.5491C45.8583 22.9578 45.6621 22.2925 45.6621 21.5533C45.6621 20.6826 45.8911 19.9846 46.3488 19.4589C46.8067 18.9332 47.5505 18.5636 48.5806 18.3501C49.6106 18.1201 50.9758 18.0051 52.6762 18.0051H53.5591V17.5862C53.5591 16.8634 53.3956 16.3542 53.0686 16.0586C52.7416 15.7465 52.1857 15.5904 51.4009 15.5904C50.7469 15.5904 50.052 15.6972 49.3163 15.9107C48.597 16.1078 47.8776 16.4118 47.1581 16.8224L46.1526 14.3338C46.5778 14.0545 47.0928 13.7999 47.6977 13.5699C48.319 13.3399 48.9648 13.1674 49.6351 13.0525C50.3055 12.921 50.9431 12.8554 51.548 12.8554C53.4119 12.8554 54.8017 13.2825 55.7172 14.1366C56.6328 14.9744 57.0904 16.2803 57.0904 18.0544V25.2H53.6326V23.3766C53.3874 24.0173 52.9705 24.5265 52.3819 24.9043C51.8097 25.2822 51.1066 25.471 50.2728 25.471ZM51.1066 22.9824C51.7933 22.9824 52.3737 22.7442 52.8479 22.2678C53.322 21.7914 53.5591 21.1754 53.5591 20.4198V19.927H52.7007C51.4418 19.927 50.5507 20.042 50.0275 20.272C49.5044 20.4855 49.2427 20.8634 49.2427 21.4054C49.2427 21.8654 49.3981 22.2432 49.7087 22.5389C50.0357 22.8346 50.5017 22.9824 51.1066 22.9824ZM59.8534 25.2V13.1018H63.483V15.1962C64.0549 13.7834 65.2811 13.0032 67.1617 12.8554L68.2408 12.7814L68.4615 15.9107L66.3769 16.1325C64.5454 16.3132 63.6301 17.2495 63.6301 18.9414V25.2H59.8534Z" fill="white"/>
</g>
<defs>
<clipPath id="clip0_73_657">
<rect width="68" height="28" fill="white" transform="translate(0.731445)"/>
</clipPath>
</defs>
</svg>
